<?xml version="1.0" encoding="UTF-8" standalone="no"?>
<svg width="26px" height="26px" viewBox="0 0 26 26" version="1.1" xmlns="http://www.w3.org/2000/svg" xmlns:xlink="http://www.w3.org/1999/xlink" xmlns:sketch="http://www.bohemiancoding.com/sketch/ns">
    <!-- Generator: Sketch 3.1.1 (8761) - http://www.bohemiancoding.com/sketch -->
    <title>flower</title>
    <desc>Created with Sketch.</desc>
    <defs></defs>
    <g id="Page-1" stroke="none" stroke-width="1" fill="none" fill-rule="evenodd" sketch:type="MSPage">
        <g id="Desktop" sketch:type="MSArtboardGroup" transform="translate(-180.000000, -18.000000)" fill="#FAF8F7">
            <g id="angular-sprout-+-Shape" sketch:type="MSLayerGroup" transform="translate(28.000000, 18.000000)">
                <path d="M164.48,10.998 C164.48,10.998 162.478,7.514 162.738,5.174 C162.998,2.834 164.064,0.624 165.156,0 C165.156,0 167.444,2.158 167.418,5.226 C167.392,8.268 165.806,10.322 165.52,11.05 C165.52,11.05 165.182,10.608 164.48,10.998 Z M165.52,15.002 C165.52,15.002 167.522,18.486 167.262,20.826 C167.002,23.166 165.936,25.376 164.844,26 C164.844,26 162.556,23.842 162.582,20.774 C162.608,17.732 164.194,15.678 164.48,14.95 C164.48,14.95 164.818,15.392 165.52,15.002 Z M167.002,12.48 C167.002,12.48 170.486,10.478 172.826,10.738 C175.166,10.998 177.376,12.064 178,13.156 C178,13.156 175.842,15.444 172.774,15.418 C169.732,15.392 167.678,13.806 166.95,13.52 C166.95,13.52 167.392,13.182 167.002,12.48 Z M162.998,13.52 C162.998,13.52 159.514,15.522 157.174,15.262 C154.834,15.002 152.624,13.936 152,12.844 C152,12.844 154.158,10.556 157.226,10.582 C160.268,10.608 162.322,12.194 163.05,12.48 C163.05,12.48 162.608,12.818 162.998,13.52 Z M166.924,14.196 C166.924,14.196 170.798,15.236 172.28,17.082 C173.762,18.928 174.568,21.242 174.23,22.438 C174.23,22.438 171.084,22.516 168.952,20.332 C166.82,18.174 166.482,15.574 166.17,14.872 C166.144,14.898 166.69,14.95 166.924,14.196 Z M163.076,11.804 C163.076,11.804 159.202,10.764 157.72,8.918 C156.238,7.072 155.432,4.758 155.77,3.562 C155.77,3.562 158.916,3.484 161.048,5.668 C163.18,7.826 163.518,10.426 163.83,11.128 C163.856,11.102 163.31,11.024 163.076,11.804 Z M163.804,14.924 C163.804,14.924 162.764,18.798 160.918,20.28 C159.072,21.762 156.758,22.568 155.562,22.23 C155.562,22.23 155.484,19.084 157.668,16.952 C159.826,14.82 162.426,14.482 163.128,14.17 C163.102,14.144 163.05,14.69 163.804,14.924 Z M166.196,11.076 C166.196,11.076 167.236,7.202 169.082,5.72 C170.928,4.238 173.242,3.432 174.438,3.77 C174.438,3.77 174.516,6.916 172.332,9.048 C170.174,11.18 167.574,11.518 166.872,11.83 C166.898,11.856 166.976,11.31 166.196,11.076 Z" id="flower" sketch:type="MSShapeGroup"></path>
            </g>
        </g>
    </g>
</svg>