<?xml version="1.0" encoding="UTF-8" standalone="no"?>
<svg width="25px" height="25px" viewBox="0 0 25 25" version="1.1" xmlns="http://www.w3.org/2000/svg" xmlns:xlink="http://www.w3.org/1999/xlink" xmlns:sketch="http://www.bohemiancoding.com/sketch/ns">
    <!-- Generator: Sketch 3.1.1 (8761) - http://www.bohemiancoding.com/sketch -->
    <title>Fill 297</title>
    <desc>Created with Sketch.</desc>
    <defs></defs>
    <g id="Page-1" stroke="none" stroke-width="1" fill="none" fill-rule="evenodd" sketch:type="MSPage">
        <g id="Desktop" sketch:type="MSArtboardGroup" transform="translate(-63.000000, -380.000000)" fill="#4D4D4D">
            <path d="M75.5,380 C68.597,380 63,385.6 63,392.5 C63,398.19 66.801,402.99 72,404.5 L72,401.6 C72,400.28 72.671,399.58 73.227,399.201 C70.221,398.88 67,397.8 67,392.62 C67,391.161 67.514,389.97 68.366,389.06 C68.231,388.71 67.785,387.36 68.502,385.53 C68.502,385.53 69.625,385.17 72.17,386.89 C73.227,386.6 74.377,386.5 75.5,386.5 C76.637,386.5 77.774,386.6 78.843,386.89 C81,385.5 82.498,385.5 82.498,385.5 C83.229,387.331 82.768,388.71 82.633,389.06 C83.485,389.97 84,391.161 84,392.62 C84,397.8 80.779,398.88 77.774,399.201 C78.329,399.58 79,400.28 79,401.6 L79,404.5 C84.2,402.99 88,398.19 88,392.5 C88,385.6 82.404,380 75.5,380" id="Fill-297" sketch:type="MSShapeGroup"></path>
        </g>
    </g>
</svg>